<svg width="64" height="64" xmlns="http://www.w3.org/2000/svg" viewBox="0 0 64 64" aria-hidden="true"><path d="M32 15 V8" stroke="#8C98B3" stroke-width="2.2" stroke-linecap="round" stroke-linejoin="round" fill="none"/><circle cx="32" cy="7" r="3.6" fill="#FF8FB1"/><rect x="5" y="29" width="6" height="13" rx="2.5" fill="#8C98B3"/><rect x="53" y="29" width="6" height="13" rx="2.5" fill="#8C98B3"/><rect x="9" y="15" width="46" height="40" rx="13" fill="#C9D3E6" stroke="#8C98B3" stroke-width="1.5"/><rect x="14" y="21" width="36" height="28" rx="10" fill="#F2F5FB"/><path d="M20 34 Q24 37 28 34" stroke="#2B2B4A" stroke-width="2" stroke-linecap="round" stroke-linejoin="round" fill="none"/><path d="M36 34 Q40 37 44 34" stroke="#2B2B4A" stroke-width="2" stroke-linecap="round" stroke-linejoin="round" fill="none"/><ellipse cx="17" cy="41" rx="3.6" ry="2" fill="#FF8FB1" opacity=".65"/><ellipse cx="47" cy="41" rx="3.6" ry="2" fill="#FF8FB1" opacity=".65"/><path d="M29 42 Q32 45 35 42" stroke="#2B2B4A" stroke-width="1.6" stroke-linecap="round" stroke-linejoin="round" fill="none"/><circle cx="15.5" cy="51" r="1.3" fill="#8C98B3"/><circle cx="48.5" cy="51" r="1.3" fill="#8C98B3"/></svg>
