<svg width="64" height="64" xmlns="http://www.w3.org/2000/svg" viewBox="0 0 64 64" aria-hidden="true"><path d="M32 15 V8" stroke="#8C98B3" stroke-width="2.2" stroke-linecap="round" stroke-linejoin="round" fill="none"/><circle cx="32" cy="7" r="3.6" fill="#FF8FB1"/><rect x="5" y="29" width="6" height="13" rx="2.5" fill="#8C98B3"/><rect x="53" y="29" width="6" height="13" rx="2.5" fill="#8C98B3"/><rect x="9" y="15" width="46" height="40" rx="13" fill="#C9D3E6" stroke="#8C98B3" stroke-width="1.5"/><rect x="14" y="21" width="36" height="28" rx="10" fill="#F2F5FB"/><ellipse cx="24" cy="34" rx="5.2" ry="6.5" fill="#2B2B4A"/><circle cx="25.82" cy="31.53" r="2.21" fill="#fff"/><circle cx="22.31" cy="36.21" r="1.04" fill="#fff"/><ellipse cx="40" cy="34" rx="5.2" ry="6.5" fill="#2B2B4A"/><circle cx="41.82" cy="31.53" r="2.21" fill="#fff"/><circle cx="38.31" cy="36.21" r="1.04" fill="#fff"/><ellipse cx="17" cy="41" rx="3.6" ry="2" fill="#FF8FB1" opacity=".65"/><ellipse cx="47" cy="41" rx="3.6" ry="2" fill="#FF8FB1" opacity=".65"/><ellipse cx="32" cy="43" rx="2.6" ry="2.2" fill="#E85A7A" stroke="#2B2B4A" stroke-width="1.1"/><circle cx="15.5" cy="51" r="1.3" fill="#8C98B3"/><circle cx="48.5" cy="51" r="1.3" fill="#8C98B3"/></svg>
