<svg width="64" height="64" xmlns="http://www.w3.org/2000/svg" viewBox="0 0 64 64" aria-hidden="true"><path d="M8 22 L13 5 L22 17 Z M56 22 L51 5 L42 17 Z" fill="#3F7A4A"/><ellipse cx="32" cy="35" rx="28" ry="27" fill="#3F7A4A"/><ellipse cx="32" cy="38" rx="22" ry="21" fill="#2A4F31"/><ellipse cx="32" cy="40" rx="19" ry="16" fill="#C3CBD4" stroke="#8C96A3" stroke-width="1.4"/><circle cx="24" cy="38" r="4.2" fill="none" stroke="#2B2B4A" stroke-width="1.6"/><path d="M24 36.2 a1.8 1.8 0 1 1 -1.8 1.8" stroke="#2B2B4A" stroke-width="1.4" stroke-linecap="round" stroke-linejoin="round" fill="none"/><circle cx="40" cy="38" r="4.2" fill="none" stroke="#2B2B4A" stroke-width="1.6"/><path d="M40 36.2 a1.8 1.8 0 1 1 -1.8 1.8" stroke="#2B2B4A" stroke-width="1.4" stroke-linecap="round" stroke-linejoin="round" fill="none"/><ellipse cx="17" cy="45" rx="3.6" ry="2" fill="#FF8FB1" opacity=".65"/><ellipse cx="47" cy="45" rx="3.6" ry="2" fill="#FF8FB1" opacity=".65"/><path d="M28 50 Q30 48 32 50 Q34 52 36 50" stroke="#2B2B4A" stroke-width="1.5" stroke-linecap="round" stroke-linejoin="round" fill="none"/><path d="M29.8 43.6 L32 47.2 L34.2 43.6 Z" fill="#F2B544" stroke="#C98A2A" stroke-width=".8" stroke-linejoin="round"/><path d="M8 7 Q8 10 11 10 Q8 10 8 13 Q8 10 5 10 Q8 10 8 7 Z" fill="#FFD166"/><path d="M57 5.5 Q57 8 59.5 8 Q57 8 57 10.5 Q57 8 54.5 8 Q57 8 57 5.5 Z" fill="#FFD166"/><path d="M52 16 Q52 18 54 18 Q52 18 52 20 Q52 18 50 18 Q52 18 52 16 Z" fill="#FFD166"/></svg>
