<svg width="64" height="64" xmlns="http://www.w3.org/2000/svg" viewBox="0 0 64 64" aria-hidden="true"><path d="M3 64 Q4 50 15 47 L49 47 Q60 50 61 64 Z" fill="#3B4A6B"/><ellipse cx="32" cy="33" rx="30.5" ry="29" fill="#3B4A6B"/><ellipse cx="32" cy="35" rx="26" ry="24.5" fill="#26314A"/><circle cx="13" cy="21" r="6.5" fill="#F2CFA0" stroke="#C99A62" stroke-width="1.4"/><circle cx="51" cy="21" r="6.5" fill="#F2CFA0" stroke="#C99A62" stroke-width="1.4"/><circle cx="13" cy="21" r="3.4" fill="#FFB8A8"/><circle cx="51" cy="21" r="3.4" fill="#FFB8A8"/><path d="M10 55 Q32 64 54 55 L55 62 Q32 70 9 62 Z" fill="#3E7A55"/><ellipse cx="32" cy="38" rx="23" ry="19" fill="#F2CFA0" stroke="#C99A62" stroke-width="1.4"/><path d="M12 30 Q14 16 32 15 Q50 16 52 30 Q46 22 38 26 Q34 20 28 25 Q20 21 12 30 Z" fill="#6B4430"/><circle cx="32" cy="14" r="4.5" fill="#6B4430"/><path d="M21 36 L27 39 L21 42" stroke="#2B2B4A" stroke-width="2" stroke-linecap="round" stroke-linejoin="round" fill="none"/><path d="M43 36 L37 39 L43 42" stroke="#2B2B4A" stroke-width="2" stroke-linecap="round" stroke-linejoin="round" fill="none"/><ellipse cx="17" cy="46" rx="3.6" ry="2" fill="#FF8FB1" opacity=".65"/><ellipse cx="47" cy="46" rx="3.6" ry="2" fill="#FF8FB1" opacity=".65"/><path d="M29 49.5 Q32 46.5 35 49.5" stroke="#2B2B4A" stroke-width="1.6" stroke-linecap="round" stroke-linejoin="round" fill="none"/><path d="M26 57 V62" stroke="#E8ECF5" stroke-width="1.4" stroke-linecap="round" stroke-linejoin="round" fill="none"/><path d="M38 57 V62" stroke="#E8ECF5" stroke-width="1.4" stroke-linecap="round" stroke-linejoin="round" fill="none"/><rect x="16.5" y="32.5" width="15" height="13" rx="4.5" fill="#A8DCFF" opacity=".28"/><rect x="16.5" y="32.5" width="15" height="13" rx="4.5" fill="none" stroke="#2B2B4A" stroke-width="1.8"/><rect x="32.5" y="32.5" width="15" height="13" rx="4.5" fill="#A8DCFF" opacity=".28"/><rect x="32.5" y="32.5" width="15" height="13" rx="4.5" fill="none" stroke="#2B2B4A" stroke-width="1.8"/><path d="M31.5 37.5 Q32 36.4 32.5 37.5" stroke="#2B2B4A" stroke-width="1.6" stroke-linecap="round" stroke-linejoin="round" fill="none"/><path d="M16.5 37 L11 35" stroke="#2B2B4A" stroke-width="1.6" stroke-linecap="round" stroke-linejoin="round" fill="none"/><path d="M47.5 37 L53 35" stroke="#2B2B4A" stroke-width="1.6" stroke-linecap="round" stroke-linejoin="round" fill="none"/><path d="M51 7 q2.5 3 0 6 M59 7 q-2.5 3 0 6 M52 6 q3 2.5 6 0 M52 14 q3 -2.5 6 0" stroke="#FF5A6E" stroke-width="1.6" stroke-linecap="round" stroke-linejoin="round" fill="none"/></svg>
