<svg width="64" height="64" xmlns="http://www.w3.org/2000/svg" viewBox="0 0 64 64" aria-hidden="true"><path d="M3 64 Q4 50 15 47 L49 47 Q60 50 61 64 Z" fill="#3B4A6B"/><ellipse cx="32" cy="33" rx="30.5" ry="29" fill="#3B4A6B"/><ellipse cx="32" cy="35" rx="26" ry="24.5" fill="#26314A"/><circle cx="14" cy="19" r="7.5" fill="#D9A24E" stroke="#A9762E" stroke-width="1.5"/><circle cx="50" cy="19" r="7.5" fill="#D9A24E" stroke="#A9762E" stroke-width="1.5"/><circle cx="14" cy="19" r="4" fill="#F2C98A"/><circle cx="50" cy="19" r="4" fill="#F2C98A"/><ellipse cx="32" cy="38" rx="23" ry="20" fill="#E8B86B" stroke="#A9762E" stroke-width="1.5"/><ellipse cx="32" cy="45" rx="11" ry="8" fill="#FBE3B8"/><path d="M33.5 15 L28 25 L32 25 L30 32 L37.5 21.5 L33.5 21.5 L36 15 Z" fill="#FFD166" stroke="#C99A2E" stroke-width="1.1" stroke-linejoin="round"/><circle cx="24" cy="39" r="4.2" fill="none" stroke="#2B2B4A" stroke-width="1.6"/><path d="M24 37.2 a1.8 1.8 0 1 1 -1.8 1.8" stroke="#2B2B4A" stroke-width="1.4" stroke-linecap="round" stroke-linejoin="round" fill="none"/><circle cx="40" cy="39" r="4.2" fill="none" stroke="#2B2B4A" stroke-width="1.6"/><path d="M40 37.2 a1.8 1.8 0 1 1 -1.8 1.8" stroke="#2B2B4A" stroke-width="1.4" stroke-linecap="round" stroke-linejoin="round" fill="none"/><ellipse cx="17" cy="46" rx="3.6" ry="2" fill="#FF8FB1" opacity=".65"/><ellipse cx="47" cy="46" rx="3.6" ry="2" fill="#FF8FB1" opacity=".65"/><path d="M28 48 Q30 46 32 48 Q34 50 36 48" stroke="#2B2B4A" stroke-width="1.5" stroke-linecap="round" stroke-linejoin="round" fill="none"/><path d="M26 57 V62" stroke="#E8ECF5" stroke-width="1.4" stroke-linecap="round" stroke-linejoin="round" fill="none"/><path d="M38 57 V62" stroke="#E8ECF5" stroke-width="1.4" stroke-linecap="round" stroke-linejoin="round" fill="none"/><rect x="16.5" y="32.5" width="15" height="13" rx="4.5" fill="#A8DCFF" opacity=".28"/><rect x="16.5" y="32.5" width="15" height="13" rx="4.5" fill="none" stroke="#2B2B4A" stroke-width="1.8"/><rect x="32.5" y="32.5" width="15" height="13" rx="4.5" fill="#A8DCFF" opacity=".28"/><rect x="32.5" y="32.5" width="15" height="13" rx="4.5" fill="none" stroke="#2B2B4A" stroke-width="1.8"/><path d="M31.5 37.5 Q32 36.4 32.5 37.5" stroke="#2B2B4A" stroke-width="1.6" stroke-linecap="round" stroke-linejoin="round" fill="none"/><path d="M16.5 37 L11 35" stroke="#2B2B4A" stroke-width="1.6" stroke-linecap="round" stroke-linejoin="round" fill="none"/><path d="M47.5 37 L53 35" stroke="#2B2B4A" stroke-width="1.6" stroke-linecap="round" stroke-linejoin="round" fill="none"/><path d="M8 7 Q8 10 11 10 Q8 10 8 13 Q8 10 5 10 Q8 10 8 7 Z" fill="#FFD166"/><path d="M57 5.5 Q57 8 59.5 8 Q57 8 57 10.5 Q57 8 54.5 8 Q57 8 57 5.5 Z" fill="#FFD166"/><path d="M52 16 Q52 18 54 18 Q52 18 52 20 Q52 18 50 18 Q52 18 52 16 Z" fill="#FFD166"/></svg>
