<svg width="64" height="64" xmlns="http://www.w3.org/2000/svg" viewBox="0 0 64 64" aria-hidden="true"><path d="M10 32 L12 8 L27 20 Z M54 32 L52 8 L37 20 Z" fill="#FFFFFF" stroke="#C7D3E3" stroke-width="1.4" stroke-linejoin="round"/><path d="M14 26 L15 14 L23 20 Z M50 26 L49 14 L41 20 Z" fill="#BFE3FF"/><ellipse cx="32" cy="40" rx="23" ry="18" fill="#FFFFFF" stroke="#C7D3E3" stroke-width="1.4"/><path d="M14 30 L18 14 L23 25 L27 10 L32 23 L37 10 L41 25 L46 14 L50 30 Q32 24 14 30 Z" fill="#F4F7FC" stroke="#C7D3E3" stroke-width="1.2" stroke-linejoin="round"/><circle cx="26" cy="27.5" r="4" fill="#2B2B4A"/><circle cx="38" cy="27.5" r="4" fill="#2B2B4A"/><path d="M30 27.5 L34 27.5" stroke="#2B2B4A" stroke-width="1.4" stroke-linecap="round" stroke-linejoin="round" fill="none"/><path d="M20 42 Q24 36 28 42" stroke="#2B2B4A" stroke-width="2" stroke-linecap="round" stroke-linejoin="round" fill="none"/><path d="M36 42 Q40 36 44 42" stroke="#2B2B4A" stroke-width="2" stroke-linecap="round" stroke-linejoin="round" fill="none"/><ellipse cx="17" cy="47" rx="3.6" ry="2" fill="#FF8FB1" opacity=".65"/><ellipse cx="47" cy="47" rx="3.6" ry="2" fill="#FF8FB1" opacity=".65"/><path d="M28 48 Q32 55 36 48 Z" fill="#E85A7A" stroke="#2B2B4A" stroke-width="1.2" stroke-linejoin="round"/></svg>
