<svg width="64" height="64" xmlns="http://www.w3.org/2000/svg" viewBox="0 0 64 64" aria-hidden="true"><path d="M3 64 Q4 50 15 47 L49 47 Q60 50 61 64 Z" fill="#3B4A6B"/><ellipse cx="32" cy="33" rx="30.5" ry="29" fill="#3B4A6B"/><ellipse cx="32" cy="35" rx="26" ry="24.5" fill="#26314A"/><path d="M11 36 L6 18 L15 24 L13 6 L22 18 L26 2 L32 16 L38 2 L42 18 L51 6 L49 24 L58 18 L53 36 Z" fill="#2E3A2E" stroke="#1E281E" stroke-width="1.2" stroke-linejoin="round"/><path d="M13 6 L15.5 12 L11.5 10 Z M26 2 L28 9 L24 7 Z M38 2 L40 7 L36 9 Z M51 6 L52.5 10 L48.5 12 Z" fill="#5FBF6A"/><ellipse cx="32" cy="40" rx="21" ry="18" fill="#FFE3CF"/><path d="M12 36 Q16 26 24 30 Q28 24 32 29 Q36 24 40 30 Q48 26 52 36 Q44 30 32 32 Q20 30 12 36 Z" fill="#2E3A2E"/><circle cx="24" cy="40" r="4.2" fill="none" stroke="#2B2B4A" stroke-width="1.6"/><path d="M24 38.2 a1.8 1.8 0 1 1 -1.8 1.8" stroke="#2B2B4A" stroke-width="1.4" stroke-linecap="round" stroke-linejoin="round" fill="none"/><circle cx="40" cy="40" r="4.2" fill="none" stroke="#2B2B4A" stroke-width="1.6"/><path d="M40 38.2 a1.8 1.8 0 1 1 -1.8 1.8" stroke="#2B2B4A" stroke-width="1.4" stroke-linecap="round" stroke-linejoin="round" fill="none"/><ellipse cx="17" cy="47" rx="3.6" ry="2" fill="#FF8FB1" opacity=".65"/><ellipse cx="47" cy="47" rx="3.6" ry="2" fill="#FF8FB1" opacity=".65"/><path d="M28 49 Q30 47 32 49 Q34 51 36 49" stroke="#2B2B4A" stroke-width="1.5" stroke-linecap="round" stroke-linejoin="round" fill="none"/><path d="M26 57 V62" stroke="#E8ECF5" stroke-width="1.4" stroke-linecap="round" stroke-linejoin="round" fill="none"/><path d="M38 57 V62" stroke="#E8ECF5" stroke-width="1.4" stroke-linecap="round" stroke-linejoin="round" fill="none"/><rect x="16.5" y="33.5" width="15" height="13" rx="4.5" fill="#A8DCFF" opacity=".28"/><rect x="16.5" y="33.5" width="15" height="13" rx="4.5" fill="none" stroke="#2B2B4A" stroke-width="1.8"/><rect x="32.5" y="33.5" width="15" height="13" rx="4.5" fill="#A8DCFF" opacity=".28"/><rect x="32.5" y="33.5" width="15" height="13" rx="4.5" fill="none" stroke="#2B2B4A" stroke-width="1.8"/><path d="M31.5 38.5 Q32 37.4 32.5 38.5" stroke="#2B2B4A" stroke-width="1.6" stroke-linecap="round" stroke-linejoin="round" fill="none"/><path d="M16.5 38 L11 36" stroke="#2B2B4A" stroke-width="1.6" stroke-linecap="round" stroke-linejoin="round" fill="none"/><path d="M47.5 38 L53 36" stroke="#2B2B4A" stroke-width="1.6" stroke-linecap="round" stroke-linejoin="round" fill="none"/><path d="M8 7 Q8 10 11 10 Q8 10 8 13 Q8 10 5 10 Q8 10 8 7 Z" fill="#FFD166"/><path d="M57 5.5 Q57 8 59.5 8 Q57 8 57 10.5 Q57 8 54.5 8 Q57 8 57 5.5 Z" fill="#FFD166"/><path d="M52 16 Q52 18 54 18 Q52 18 52 20 Q52 18 50 18 Q52 18 52 16 Z" fill="#FFD166"/></svg>
