<svg width="64" height="64" xmlns="http://www.w3.org/2000/svg" viewBox="0 0 64 64" aria-hidden="true"><path d="M11 36 L6 18 L15 24 L13 6 L22 18 L26 2 L32 16 L38 2 L42 18 L51 6 L49 24 L58 18 L53 36 Z" fill="#2E3A2E" stroke="#1E281E" stroke-width="1.2" stroke-linejoin="round"/><path d="M13 6 L15.5 12 L11.5 10 Z M26 2 L28 9 L24 7 Z M38 2 L40 7 L36 9 Z M51 6 L52.5 10 L48.5 12 Z" fill="#5FBF6A"/><ellipse cx="32" cy="40" rx="21" ry="18" fill="#FFE3CF"/><path d="M12 36 Q16 26 24 30 Q28 24 32 29 Q36 24 40 30 Q48 26 52 36 Q44 30 32 32 Q20 30 12 36 Z" fill="#2E3A2E"/><ellipse cx="24" cy="40" rx="5.2" ry="6.5" fill="#2B2B4A"/><circle cx="25.82" cy="37.53" r="2.21" fill="#fff"/><circle cx="22.31" cy="42.21" r="1.04" fill="#fff"/><ellipse cx="40" cy="40" rx="5.2" ry="6.5" fill="#2B2B4A"/><circle cx="41.82" cy="37.53" r="2.21" fill="#fff"/><circle cx="38.31" cy="42.21" r="1.04" fill="#fff"/><ellipse cx="17" cy="47" rx="3.6" ry="2" fill="#FF8FB1" opacity=".65"/><ellipse cx="47" cy="47" rx="3.6" ry="2" fill="#FF8FB1" opacity=".65"/><ellipse cx="32" cy="50" rx="2.6" ry="2.2" fill="#E85A7A" stroke="#2B2B4A" stroke-width="1.1"/></svg>
