<svg width="64" height="64" xmlns="http://www.w3.org/2000/svg" viewBox="0 0 64 64" aria-hidden="true"><path d="M24 54 Q32 50 40 54 L36 61 Q32 58 28 61 Z" fill="#FFFFFF" stroke="#CFCFDA" stroke-width="1.2" stroke-linejoin="round"/><path d="M10 31 L12 8 L27 20 Z M54 31 L52 8 L37 20 Z" fill="#2E2E38" stroke="#1C1C24" stroke-width="1.2" stroke-linejoin="round"/><ellipse cx="32" cy="37" rx="23" ry="18" fill="#2E2E38" stroke="#1C1C24" stroke-width="1.4"/><ellipse cx="32" cy="41" rx="17" ry="13" fill="#F3EEE8"/><path d="M15 34 Q17 22 32 21 Q47 22 49 34 Q40 28 33 29 L32 25 Q24 27 15 34 Z" fill="#2E2E38"/><path d="M20 41 Q24 35 28 41" stroke="#2B2B4A" stroke-width="2" stroke-linecap="round" stroke-linejoin="round" fill="none"/><path d="M36 41 Q40 35 44 41" stroke="#2B2B4A" stroke-width="2" stroke-linecap="round" stroke-linejoin="round" fill="none"/><ellipse cx="17" cy="46" rx="3.6" ry="2" fill="#FF8FB1" opacity=".65"/><ellipse cx="47" cy="46" rx="3.6" ry="2" fill="#FF8FB1" opacity=".65"/><path d="M28 47 Q32 54 36 47 Z" fill="#E85A7A" stroke="#2B2B4A" stroke-width="1.2" stroke-linejoin="round"/></svg>
