<svg width="64" height="64" xmlns="http://www.w3.org/2000/svg" viewBox="0 0 64 64" aria-hidden="true"><path d="M24 54 Q32 50 40 54 L36 61 Q32 58 28 61 Z" fill="#FFFFFF" stroke="#CFCFDA" stroke-width="1.2" stroke-linejoin="round"/><path d="M10 31 L12 8 L27 20 Z M54 31 L52 8 L37 20 Z" fill="#2E2E38" stroke="#1C1C24" stroke-width="1.2" stroke-linejoin="round"/><ellipse cx="32" cy="37" rx="23" ry="18" fill="#2E2E38" stroke="#1C1C24" stroke-width="1.4"/><ellipse cx="32" cy="41" rx="17" ry="13" fill="#F3EEE8"/><path d="M15 34 Q17 22 32 21 Q47 22 49 34 Q40 28 33 29 L32 25 Q24 27 15 34 Z" fill="#2E2E38"/><ellipse cx="24" cy="39" rx="4.6" ry="5.75" fill="#2B2B4A"/><circle cx="25.61" cy="36.815" r="1.9549999999999998" fill="#fff"/><circle cx="22.505" cy="40.955" r="0.9199999999999999" fill="#fff"/><ellipse cx="40" cy="39" rx="4.6" ry="5.75" fill="#2B2B4A"/><circle cx="41.61" cy="36.815" r="1.9549999999999998" fill="#fff"/><circle cx="38.505" cy="40.955" r="0.9199999999999999" fill="#fff"/><ellipse cx="17" cy="46" rx="3.6" ry="2" fill="#FF8FB1" opacity=".65"/><ellipse cx="47" cy="46" rx="3.6" ry="2" fill="#FF8FB1" opacity=".65"/><ellipse cx="32" cy="49" rx="2" ry="2.6" fill="#2B2B4A"/><path d="M57 6 L57 15" stroke="#E86F96" stroke-width="3" stroke-linecap="round"/><circle cx="57" cy="20" r="1.7" fill="#E86F96"/></svg>
