<svg width="64" height="64" xmlns="http://www.w3.org/2000/svg" viewBox="0 0 64 64" aria-hidden="true"><ellipse cx="11" cy="39" rx="6" ry="12" fill="#3E5BA9" transform="rotate(14 11 39)"/><ellipse cx="53" cy="39" rx="6" ry="12" fill="#3E5BA9" transform="rotate(-14 53 39)"/><ellipse cx="32" cy="39" rx="22" ry="19" fill="#F6E3CC" stroke="#C9A27E" stroke-width="1.5"/><path d="M10 34 Q10 12 32 11 Q54 12 54 34 Q44 27 32 27 Q20 27 10 34 Z" fill="#3E5BA9"/><path d="M32.00 14.30 L33.29 17.72 L36.95 17.89 L34.09 20.18 L35.06 23.71 L32.00 21.70 L28.94 23.71 L29.91 20.18 L27.05 17.89 L30.71 17.72 Z" fill="#FFFFFF"/><ellipse cx="24" cy="40" rx="4.6" ry="5.75" fill="#2B2B4A"/><circle cx="25.61" cy="37.815" r="1.9549999999999998" fill="#fff"/><circle cx="22.505" cy="41.955" r="0.9199999999999999" fill="#fff"/><ellipse cx="40" cy="40" rx="4.6" ry="5.75" fill="#2B2B4A"/><circle cx="41.61" cy="37.815" r="1.9549999999999998" fill="#fff"/><circle cx="38.505" cy="41.955" r="0.9199999999999999" fill="#fff"/><ellipse cx="17" cy="47" rx="3.6" ry="2" fill="#FF8FB1" opacity=".65"/><ellipse cx="47" cy="47" rx="3.6" ry="2" fill="#FF8FB1" opacity=".65"/><ellipse cx="32" cy="50" rx="2" ry="2.6" fill="#2B2B4A"/><path d="M57 6 L57 15" stroke="#E86F96" stroke-width="3" stroke-linecap="round"/><circle cx="57" cy="20" r="1.7" fill="#E86F96"/></svg>
